# xmcd CD database file
#
# Track frame offsets:
#	183
#	40140
#	96240
#	111118
#	155433
#
# Disc length: 2495 seconds
#
# Revision: 0
# Processed by: cddbd v1.4PL0 Copyright (c) Steve Scherf et al.
# Submitted via: CDex 1.50
#
DISCID=3609bd05
DTITLE=Julius Hemphill - Flat-out Jump Suite
DYEAR=1987
DGENRE=Jazz
TTITLE0=Ear
TTITLE1=Mind (1st part)
TTITLE2=Mind (2nd part)
TTITLE3=Heart
TTITLE4=Body
EXTD=YEAR: 1987
EXTT0=
EXTT1=
EXTT2=
EXTT3=
EXTT4=
PLAYORDER=
